<svg xmlns="http://www.w3.org/2000/svg" width="142" height="32" fill="none">
  <path fill="#770b22" d="M18.01 0a268 268 0 0 0 62.74 17.73c9.3 1.43 26.23 1.22 39.08-.49 4.56-.6 15.34-3.23 22.17-5.23v.66c-4.1 1.49-9.23 3.18-13.24 4.29-.93.26-1.68.53-2.14.78l-.3.18a1 1 0 0 0-.2.2.3.3 0 0 0-.02.3c.04.11.14.17.22.2l.06.03.04.03.03.09q.01.12-.15.46a9 9 0 0 1-1.52 1.83q-.87.84-1.33 1.37t-.6.92a.9.9 0 0 0 .16.8q.26.32.76.7.68.52 1.23.68.55.18.98-.08.4-.28.58-.9.18-.6.18-1.56 0-.84.18-1.26.17-.4.38-.43c.13-.03.31.02.55.24q.35.3.74 1.07c.51 1.01.3 2.15-.4 3.06-.69.9-1.85 1.55-3.19 1.55-1.52 0-2.58-.76-3.06-1.89-.49-1.13-.4-2.68.46-4.27l.29-.56q.38-.78.46-1.25.06-.32-.1-.56-.17-.23-.47-.21c-.26 0-1.64.14-3.63.35-2 .22-4.64.5-7.42.83-5.57.64-12.07 1.17-14.43 1.18q-2.3 0-3.35.26-.54.12-.83.37a.8.8 0 0 0-.32.63v.09q-.03.15-.13.39-.14.31-.39.7c-.33.53-.79 1.1-1.3 1.6a9 9 0 0 0-1.49 1.92 3.3 3.3 0 0 0-.47 1.65q.03.76.64 1.16.6.36 1.66.24a5 5 0 0 0 1.14-.23q.45-.16.7-.55.23-.39.28-1.02t.02-1.64a14 14 0 0 1 .03-1.83q.03-.33.1-.54a1 1 0 0 1 .13-.27.2.2 0 0 1 .13-.07q.08 0 .23.07.32.17.88.76c1.02 1.08 1.1 2.94.53 4.56-.57 1.63-1.75 2.91-3.14 2.91-3.8 0-5.72-4.74-3.08-7.54q.62-.66.9-1.36.14-.33.16-.63.04-.31-.1-.56l-.06-.08-.07-.06-.18-.1a4 4 0 0 0-.53-.22q-.64-.22-1.69-.46c-1.37-.31-3.2-.63-5.16-.88-3.4-.44-8.87-1.35-12.96-2.14l-1.66-.33a401 401 0 0 0-7.9-1.53l-.3-.03q-.15 0-.24.13a.4.4 0 0 0-.06.25q.02.23.16.57c.17.43.5 1.02.93 1.66 1 1.5 1.46 2.58 1.42 3.56-.04.97-.57 1.89-1.7 3.07-1.14 1.23-2.15 1.8-3.1 1.8s-1.92-.57-3-1.78a4.6 4.6 0 0 1-1.23-3.74c.2-1.2.98-2.3 2.3-2.94q.7-.32 1.13-.65.43-.32.62-.69a1 1 0 0 0 .04-.77q-.15-.38-.58-.7-.84-.67-2.82-1.37a64 64 0 0 0-5.22-1.54 135 135 0 0 1-12.55-3.86c-1.2-.48-2.28-.83-3.08-1q-.6-.13-.97-.12a1 1 0 0 0-.32.06c-.1.05-.2.14-.2.3v.03l-.08.13q-.12.11-.36.21-.43.19-1.1.21h-.18a4 4 0 0 0-1.81.55 10 10 0 0 0-3.35 2.98 3 3 0 0 0-.62 1.65c0 .82.42 1.62 1.03 2.2s1.44.98 2.28.98c.95 0 1.77-.77 2.27-1.76.47-.93.68-2.11.42-3.18l-.05-.22q-.14-.46-.15-.75-.02-.28.04-.36.03-.07.1-.07a.5.5 0 0 1 .27.09q.38.2.86.86c.3.43.6.98.8 1.62.33.97.42 1.52.25 2.03-.17.53-.63 1.04-1.55 1.88-1.63 1.49-3.26 1.98-4.57 1.64-1.22-.33-2.2-1.4-2.67-3.19l-.08-.37q-.45-2.14.4-3.85a8 8 0 0 1 3.05-3.16l2.64-1.7-.33-.15-1.81-.8L13.67 0zm39.57 19.32c-.9-.08-1.93.36-2.81 1.29-.76.8-1.1 1.7-1 2.58s.64 1.69 1.57 2.3c1.02.69 2.3.17 3.17-.76a4 4 0 0 0 1.14-3.4l-.06-.25c-.33-1.07-1.1-1.68-2-1.76M3.83 0q-.7.37-1.27.86c-1.1.95-1.54 2.1-1.31 3.01q.17.7.8 1.08.65.36 1.63.22c.68-.1 1.16-.3 1.44-.75.27-.43.32-1.07.26-1.95q-.05-.9.1-1.31c.09-.29.22-.38.34-.4q.21-.05.64.31.43.39.92 1.21.62 1.07.1 2.29a5.6 5.6 0 0 1-2.1 2.32q-.61.4-1.45.28a5 5 0 0 1-1.71-.64C1.09 5.84.18 4.73.02 3.6c-.07-.57.05-1.23.31-1.89C.6 1.1.97.5 1.4 0z"/>
</svg>
